<?xml version="1.0" encoding="UTF-8"?>
<!DOCTYPE svg PUBLIC "-//W3C//DTD SVG 1.1//EN" "http://www.w3.org/Graphics/SVG/1.1/DTD/svg11.dtd">
<!-- Creator: CorelDRAW -->
<svg xmlns="http://www.w3.org/2000/svg" xml:space="preserve" width="6.09482in" height="3.18027in" version="1.1" style="shape-rendering:geometricPrecision; text-rendering:geometricPrecision; image-rendering:optimizeQuality; fill-rule:evenodd; clip-rule:evenodd"
viewBox="0 0 6094.82 3180.27"
 xmlns:xlink="http://www.w3.org/1999/xlink"
 xmlns:xodm="http://www.corel.com/coreldraw/odm/2003">
 <defs>
  <style type="text/css">
   <![CDATA[
    .str0 {stroke:#113C64;stroke-width:41.67;stroke-miterlimit:2.61313}
    .fil2 {fill:#113C64;fill-rule:nonzero}
    .fil1 {fill:#F08719;fill-rule:nonzero}
    .fil0 {fill:white;fill-rule:nonzero}
   ]]>
  </style>
 </defs>
 <g id="Layer_x0020_1">
  <metadata id="CorelCorpID_0Corel-Layer"/>
  <g id="_1992016659536">
   <path class="fil0 str0" d="M3787.86 2989.02c48.8,27.13 139.87,61.63 273.24,103.46 142.29,44.63 279.68,66.94 412.2,66.94 132.52,0 266.44,-17.42 401.73,-52.31 135.31,-34.87 274.81,-93.45 418.49,-175.76 143.69,-82.29 272.71,-182.74 387.1,-301.31 114.39,-118.56 208.55,-270.61 282.47,-456.13 73.94,-185.54 110.89,-387.09 110.89,-604.72 0,-217.6 -36.26,-414.99 -108.79,-592.15 -72.55,-177.16 -165.31,-323.63 -278.31,-439.41 -112.98,-115.76 -242.02,-212.71 -387.07,-290.83 -273.41,-150.66 -548.23,-225.97 -824.43,-225.97 -131.1,0 -264.34,20.21 -399.65,60.68 -127.2,38.03 -225.45,76.68 -294.71,115.94 122.52,68.54 238.11,156.12 346.76,262.76 97.47,95.68 179.29,198.76 245.51,309.19 41.64,-5.25 85.44,-7.88 131.41,-7.88 181.34,0 359.89,62.79 535.65,188.33 83.69,61.37 153.44,147.84 209.23,259.44 55.81,111.6 83.71,237.84 83.71,378.73 0,140.89 -27.9,267.13 -83.71,378.73 -55.79,111.6 -126.94,199.47 -213.42,263.63 -170.19,122.76 -347.34,184.15 -531.46,184.15 -46.36,0 -91.31,-3.2 -134.85,-9.62 -60.78,104.6 -134.48,203.36 -221.14,296.27 -110.56,118.53 -230.85,214.45 -360.85,287.82z"/>
   <path class="fil1 str0" d="M2332.16 2974l-15.98 9.68c-46.02,27.9 -140.18,64.18 -282.46,108.81 -142.29,44.63 -279.68,66.94 -412.2,66.94 -132.52,0 -266.44,-17.42 -401.73,-52.31 -135.31,-34.87 -274.81,-93.45 -418.49,-175.76 -143.69,-82.29 -272.71,-182.74 -387.1,-301.31 -114.39,-118.56 -208.55,-270.61 -282.47,-456.13 -73.94,-185.54 -110.89,-387.09 -110.89,-604.72 0,-217.6 36.26,-414.99 108.79,-592.15 72.55,-177.16 165.31,-323.63 278.31,-439.41 112.98,-115.76 242.02,-212.71 387.07,-290.83 273.41,-150.66 548.23,-225.97 824.43,-225.97 131.1,0 264.34,20.21 399.65,60.68 135.29,40.44 237.84,81.6 307.57,123.44l6.11 3.56c-117.69,66.87 -225.19,147.98 -322.5,243.33 -94.78,92.88 -176.68,200.92 -245.71,324.07 -54.2,-9.59 -112.34,-14.4 -174.44,-14.4 -181.34,0 -359.89,62.79 -535.65,188.33 -83.69,61.37 -153.44,147.84 -209.23,259.44 -55.81,111.6 -83.71,237.84 -83.71,378.73 0,140.89 27.9,267.13 83.71,378.73 55.79,111.6 126.94,199.47 213.42,263.63 170.19,122.76 347.34,184.15 531.46,184.15 58.4,0 114.57,-5.09 168.52,-15.27 64.19,108.57 143.17,211.3 236.98,308.19 104.35,107.78 216.53,196.6 336.54,266.53z"/>
   <path class="fil2" d="M3052.28 12.46c412.91,0 771.41,149.26 1075.51,447.76 304.1,298.52 456.13,668.88 456.13,1111.08 0,442.2 -145.06,818.83 -435.2,1129.9 -290.15,311.07 -647.25,466.6 -1071.32,466.6 -424.05,0 -784.65,-153.44 -1081.77,-460.33 -297.13,-306.87 -445.68,-672.36 -445.68,-1096.41 0,-231.57 41.84,-448.49 125.53,-650.75 83.71,-202.26 195.31,-371.76 334.81,-508.46 139.47,-136.69 299.89,-244.1 481.23,-322.23 181.37,-78.1 368.28,-117.16 560.78,-117.16zm-761.64 1577.69c0,248.28 80.21,449.86 240.63,604.7 160.42,154.84 339.68,232.26 537.75,232.26 198.08,0 376.63,-75.34 535.65,-225.99 159.02,-150.66 238.55,-352.92 238.55,-606.78 0,-253.89 -80.21,-457.54 -240.63,-610.99 -160.42,-153.44 -339.68,-230.18 -537.76,-230.18 -198.07,0 -376.62,77.42 -535.65,232.26 -159.02,154.84 -238.55,356.41 -238.55,604.72z"/>
  </g>
 </g>
</svg>
