<?xml version="1.0" encoding="UTF-8"?>
<!DOCTYPE svg PUBLIC "-//W3C//DTD SVG 1.1//EN" "http://www.w3.org/Graphics/SVG/1.1/DTD/svg11.dtd">
<!-- Creator: CorelDRAW -->
<svg xmlns="http://www.w3.org/2000/svg" xml:space="preserve" width="6.09483in" height="3.23868in" version="1.1" style="shape-rendering:geometricPrecision; text-rendering:geometricPrecision; image-rendering:optimizeQuality; fill-rule:evenodd; clip-rule:evenodd"
viewBox="0 0 6210.49 3300.14"
 xmlns:xlink="http://www.w3.org/1999/xlink"
 xmlns:xodm="http://www.corel.com/coreldraw/odm/2003">
 <defs>
  <style type="text/css">
   <![CDATA[
    .str0 {stroke:#113C64;stroke-width:42.46;stroke-miterlimit:2.61313}
    .str1 {stroke:white;stroke-width:84.92;stroke-miterlimit:2.61313}
    .fil2 {fill:#113C64;fill-rule:nonzero}
    .fil1 {fill:#F08719;fill-rule:nonzero}
    .fil0 {fill:white;fill-rule:nonzero}
   ]]>
  </style>
 </defs>
 <g id="Layer_x0020_1">
  <metadata id="CorelCorpID_0Corel-Layer"/>
  <g id="_1992524869936">
   <path class="fil0 str0" d="M3859.75 3075.5c49.72,27.65 142.53,62.8 278.43,105.43 144.99,45.48 284.98,68.22 420.03,68.22 135.04,0 271.5,-17.75 409.36,-53.3 137.88,-35.53 280.02,-95.23 426.43,-179.1 146.41,-83.85 277.88,-186.2 394.45,-307.02 116.56,-120.8 212.5,-275.74 287.83,-464.79 75.35,-189.06 113,-394.44 113,-616.2 0,-221.73 -36.95,-422.86 -110.86,-603.38 -73.93,-180.52 -168.45,-329.77 -283.59,-447.75 -115.12,-117.96 -246.62,-216.75 -394.42,-296.35 -278.6,-153.52 -558.63,-230.26 -840.08,-230.26 -133.59,0 -269.35,20.59 -407.23,61.83 -129.61,38.75 -229.73,78.14 -300.3,118.14 124.85,69.84 242.63,159.08 353.34,267.75 99.32,97.49 182.69,202.53 250.17,315.06 42.43,-5.35 87.06,-8.03 133.9,-8.03 184.78,0 366.72,63.98 545.81,191.91 85.27,62.53 156.35,150.65 213.2,264.36 56.87,113.72 85.3,242.36 85.3,385.92 0,143.56 -28.43,272.2 -85.3,385.92 -56.85,113.72 -129.35,203.25 -217.47,268.63 -173.41,125.09 -353.93,187.65 -541.55,187.65 -47.24,0 -93.04,-3.27 -137.41,-9.8 -61.93,106.58 -137.03,207.22 -225.34,301.89 -112.66,120.78 -235.23,218.52 -367.69,293.28z"/>
   <path class="fil1 str0" d="M2376.42 3060.19l-16.28 9.86c-46.9,28.43 -142.84,65.4 -287.82,110.88 -144.99,45.48 -284.98,68.22 -420.03,68.22 -135.04,0 -271.5,-17.75 -409.36,-53.3 -137.88,-35.53 -280.02,-95.23 -426.43,-179.1 -146.41,-83.85 -277.88,-186.2 -394.45,-307.02 -116.56,-120.8 -212.5,-275.74 -287.83,-464.79 -75.35,-189.06 -113,-394.44 -113,-616.2 0,-221.73 36.95,-422.86 110.86,-603.38 73.93,-180.52 168.45,-329.77 283.59,-447.75 115.12,-117.96 246.62,-216.75 394.42,-296.35 278.6,-153.52 558.63,-230.26 840.08,-230.26 133.59,0 269.35,20.59 407.23,61.83 137.85,41.21 242.35,83.15 313.41,125.78l6.23 3.63c-119.92,68.14 -229.46,150.78 -328.62,247.95 -96.58,94.64 -180.03,204.73 -250.37,330.22 -55.23,-9.77 -114.47,-14.67 -177.75,-14.67 -184.78,0 -366.72,63.98 -545.81,191.91 -85.27,62.53 -156.35,150.65 -213.2,264.36 -56.87,113.72 -85.3,242.36 -85.3,385.92 0,143.56 28.43,272.2 85.3,385.92 56.85,113.72 129.35,203.25 217.47,268.63 173.41,125.09 353.93,187.65 541.55,187.65 59.51,0 116.75,-5.18 171.72,-15.56 65.41,110.63 145.88,215.31 241.47,314.03 106.33,109.82 220.64,200.33 342.93,271.59z"/>
   <path class="fil2 str1" d="M3110.21 42.46c420.75,0 786.04,152.1 1095.92,456.26 309.87,304.18 464.78,681.57 464.78,1132.17 0,450.59 -147.81,834.37 -443.46,1151.34 -295.66,316.97 -659.53,475.45 -1091.65,475.45 -432.09,0 -799.54,-156.36 -1102.3,-469.07 -302.76,-312.69 -454.13,-685.12 -454.13,-1117.21 0,-235.97 42.64,-457 127.91,-663.1 85.3,-206.1 199.02,-378.81 341.16,-518.11 142.12,-139.28 305.58,-248.73 490.36,-328.35 184.81,-79.58 375.27,-119.38 571.42,-119.38zm-776.09 1607.62c0,252.99 81.73,458.39 245.19,616.17 163.46,157.78 346.12,236.67 547.96,236.67 201.84,0 383.77,-76.77 545.81,-230.28 162.04,-153.52 243.07,-359.61 243.07,-618.3 0,-258.7 -81.73,-466.23 -245.19,-622.58 -163.46,-156.36 -346.12,-234.55 -547.96,-234.55 -201.83,0 -383.77,78.89 -545.81,236.67 -162.04,157.78 -243.07,363.18 -243.07,616.2z"/>
  </g>
 </g>
</svg>
